<?xml version="1.0" standalone="no"?>
<!DOCTYPE svg PUBLIC "-//W3C//DTD SVG 20010904//EN"
 "http://www.w3.org/TR/2001/REC-SVG-20010904/DTD/svg10.dtd">
<svg version="1.0" xmlns="http://www.w3.org/2000/svg"
 width="500.000000pt" height="500.000000pt" viewBox="0 0 500.000000 500.000000"
 preserveAspectRatio="xMidYMid meet">

<g transform="translate(0.000000,500.000000) scale(0.100000,-0.100000)"
fill="#000000" stroke="none">
<path d="M2376 3499 c-96 -9 -282 -51 -331 -74 -29 -13 -29 -14 -3 -9 26 6 26
5 30 -55 l3 -60 -43 -17 c-24 -9 -42 -18 -40 -20 2 -2 38 10 79 26 185 71 458
96 571 51 80 -31 159 -106 200 -189 43 -87 51 -198 20 -279 -11 -29 -17 -53
-14 -53 4 0 43 15 87 33 l80 32 7 50 c19 128 -41 308 -136 408 -126 131 -283
179 -510 156z"/>
<path d="M3072 3363 c2 -4 20 -42 41 -83 20 -41 37 -80 37 -86 0 -6 7 -18 17
-25 15 -13 15 -12 5 6 -25 44 -39 94 -35 119 5 22 2 27 -12 24 -10 -2 -20 3
-22 10 -3 6 0 12 7 12 6 0 8 -4 5 -10 -3 -6 1 -7 10 -4 19 8 19 7 -24 29 -18
9 -31 13 -29 8z"/>
<path d="M3190 3306 c0 -3 9 -10 20 -16 11 -6 20 -8 20 -6 0 3 -9 10 -20 16
-11 6 -20 8 -20 6z"/>
<path d="M2415 3191 c-80 -37 -125 -111 -125 -206 0 -93 60 -177 145 -205 58
-19 146 -9 194 23 69 46 116 156 97 230 l-6 25 -39 -20 c-48 -24 -82 -17 -116
24 -30 36 -32 76 -5 111 17 22 18 26 4 31 -31 12 -110 5 -149 -13z"/>
<path d="M2082 3128 c-83 -34 -92 -48 -92 -132 0 -194 114 -383 280 -464 106
-53 201 -67 345 -53 67 6 159 20 206 31 109 26 230 70 223 81 -3 5 1 6 9 3 14
-5 137 50 137 61 0 3 -22 -6 -50 -20 -27 -14 -51 -25 -53 -25 -3 0 -1 19 4 43
12 63 11 89 -3 82 -14 -7 9 12 39 33 10 6 -13 -3 -52 -22 -150 -72 -318 -117
-490 -130 -196 -16 -343 63 -418 222 -28 59 -31 77 -31 152 0 56 6 98 17 124
25 57 29 57 -71 14z"/>
<path d="M1044 2190 c-48 -20 -54 -44 -54 -212 l0 -158 40 0 40 0 0 60 0 60
110 0 110 0 0 -60 0 -60 40 0 40 0 0 159 c0 155 -1 161 -24 188 -24 28 -26 28
-153 30 -70 2 -138 -2 -149 -7z m244 -122 l3 -48 -110 0 -111 0 0 50 0 51 108
-3 107 -3 3 -47z"/>
<path d="M1430 2010 l0 -190 190 0 190 0 0 40 0 40 -150 0 -150 0 0 150 0 150
-40 0 -40 0 0 -190z"/>
<path d="M1840 2010 l0 -190 190 0 190 0 0 40 0 40 -150 0 -150 0 0 150 0 150
-40 0 -40 0 0 -190z"/>
<path d="M2420 2010 l0 -190 175 0 175 0 0 40 0 40 -135 0 -135 0 0 35 0 35
111 0 110 0 -3 38 -3 37 -107 3 -108 3 0 34 0 35 136 0 135 0 -3 38 -3 37
-172 3 -173 2 0 -190z"/>
<path d="M2810 2193 c0 -5 39 -60 85 -123 l85 -115 0 -67 0 -68 40 0 40 0 0
73 1 72 85 115 84 115 -42 3 c-46 4 -42 7 -133 -102 l-40 -49 -60 77 c-58 73
-61 76 -102 76 -24 0 -43 -3 -43 -7z"/>
<path d="M3250 2010 l0 -190 176 0 175 0 -3 38 -3 37 -132 3 -133 3 0 34 0 35
105 0 105 0 0 40 0 40 -105 0 -105 0 0 35 0 35 136 0 135 0 -3 38 -3 37 -172
3 -173 2 0 -190z"/>
<path d="M3693 2190 c-32 -13 -43 -41 -43 -113 0 -53 4 -67 23 -85 21 -20 34
-22 145 -22 l122 0 0 -35 0 -35 -105 0 c-87 0 -105 3 -105 15 0 11 -11 15 -40
15 -39 0 -40 -1 -40 -34 0 -25 7 -40 26 -55 24 -19 40 -21 159 -21 119 0 135
2 159 21 24 19 26 26 26 94 0 68 -2 75 -26 94 -24 19 -40 21 -145 21 l-119 0
0 35 0 35 105 0 c87 0 105 -3 105 -15 0 -11 11 -15 40 -15 37 0 40 2 40 29 0
16 -9 39 -19 52 -18 23 -26 24 -153 26 -73 1 -143 -2 -155 -7z"/>
</g>
</svg>
